<?xml version="1.0" encoding="UTF-8" standalone="no"?>
<!DOCTYPE svg PUBLIC "-//W3C//DTD SVG 1.1//EN" "http://www.w3.org/Graphics/SVG/1.1/DTD/svg11.dtd">
<svg id="AppReload" version="1.1" class="AppReload" viewBox="0,0,35,33" width="30" height="30"
     xmlns="http://www.w3.org/2000/svg">
    <path class="AppReload" fill="#727fff" stroke="#5100e1" d="M32.2848,18.849 C32.2848,18.849,34.1197,6.1332,34.0053,6.03055 C33.6776,5.73664,31.4209,7.51161,30.311,7.92024 C29.8071,8.10574,25.0212,-0.479775,14.2321,0.911829 C4.33652,2.18816,0.817582,10.2568,0.873718,17.5315 C0.918385,23.3206,4.23833,27.8694,9.33541,30.6145 C14.1433,33.2038,21.4226,32.6796,23.7285,30.6383 C23.9105,30.4772,21.9644,26.0203,21.2201,25.7451 C20.1699,25.3567,18.2534,27.1434,14.3942,25.9416 C11.5758,25.064,8.31474,22.6136,7.32716,18.6941 C6.44509,15.1934,8.31009,11.336,10.0428,9.56543 C11.6451,7.92815,15.1291,7.00301,16.522,6.9927 C20.6829,6.9618,23.4536,9.14182,24.428,11.0485 C24.475,11.1403,20.7102,13.2867,20.822,13.1391 C20.822,13.1391,31.4623,18.3385,32.2184,18.8309 Z"/>
</svg>
