<?xml version="1.0" encoding="UTF-8" standalone="no"?>
<!DOCTYPE svg PUBLIC "-//W3C//DTD SVG 1.1//EN" "http://www.w3.org/Graphics/SVG/1.1/DTD/svg11.dtd">

<svg version="1.1" viewBox="65,192,122,124" width="122" height="124" xmlns="http://www.w3.org/2000/svg">
    <g id="background">
        <path fill="none" stroke="#0c008e" stroke-width="0.1" d="M66,192.75 L186,192.75 L186,315.25 L66,315.25 L66,192.75 Z"/>
    </g>
    <g id="Day_Night"><path fill="#ffee84" d="M86.1767,250 C86.9678,249.976,87.6162,251.71,87.625,253.872 C87.6338,256.035,86.9996,257.808,86.2085,257.832 C86.2032,257.832,86.1979,257.832,86.1926,257.832 L70.6825,257.875 C69.8914,257.875,69.25,256.122,69.25,253.959 C69.25,251.846,69.8633,250.114,70.6358,250.045 Z"/>
        <path fill="#ffee84" d="M109.842,217.671 C110.258,218.344,109.081,219.773,107.213,220.862 C105.344,221.951,103.492,222.288,103.075,221.615 C103.073,221.61,103.07,221.606,103.067,221.601 L95.275,208.19 C94.8795,207.505,96.0772,206.073,97.9503,204.992 C99.7803,203.935,101.587,203.6,102.033,204.235 Z"/>
        <path fill="#ffee84" d="M93.8586,230.647 C94.5557,231.022,94.2504,232.848,93.1766,234.725 C92.1029,236.602,90.6673,237.82,89.9702,237.446 C89.9655,237.443,89.9609,237.441,89.9563,237.438 L76.5027,229.72 C75.8176,229.324,76.1388,227.485,77.2202,225.612 C78.2768,223.782,79.6739,222.589,80.3774,222.915 Z"/>
        <path fill="#ffee84" d="M130.125,214.427 C130.149,215.218,128.415,215.866,126.253,215.875 C124.09,215.884,122.317,215.25,122.293,214.458 C122.293,214.453,122.293,214.448,122.293,214.443 L122.25,198.933 C122.25,198.141,124.003,197.5,126.166,197.5 C128.279,197.5,130.011,198.113,130.08,198.886 Z"/>
        <path fill="#ffee84" d="M162.204,237.717 C161.531,238.133,160.102,236.956,159.013,235.088 C157.924,233.219,157.587,231.367,158.26,230.95 C158.265,230.948,158.269,230.945,158.274,230.942 L171.685,223.15 C172.37,222.754,173.802,223.952,174.883,225.825 C175.94,227.655,176.275,229.462,175.64,229.908 Z"/>
        <path fill="#ffee84" d="M148.978,221.984 C148.603,222.681,146.777,222.375,144.9,221.302 C143.023,220.228,141.805,218.792,142.179,218.095 C142.182,218.091,142.184,218.086,142.187,218.081 L149.905,204.628 C150.301,203.943,152.14,204.264,154.013,205.345 C155.843,206.402,157.036,207.799,156.71,208.502 Z"/>
        <path fill="#ffee84" d="M165.448,257.875 C164.657,257.899,164.009,256.165,164,254.003 C163.991,251.84,164.625,250.067,165.417,250.043 C165.422,250.043,165.427,250.043,165.432,250.043 L180.942,250 C181.734,250,182.375,251.753,182.375,253.916 C182.375,256.029,181.762,257.761,180.989,257.83 Z"/>
        <path fill="#ffee84" d="M109.592,290.204 C110.008,289.531,108.831,288.102,106.963,287.013 C105.094,285.924,103.242,285.587,102.825,286.26 C102.823,286.265,102.82,286.269,102.817,286.274 L95.025,299.685 C94.6295,300.37,95.8272,301.802,97.7003,302.883 C99.5303,303.94,101.337,304.275,101.783,303.64 Z"/>
        <path fill="#ffee84" d="M93.8586,276.978 C94.5557,276.603,94.2504,274.777,93.1766,272.9 C92.1029,271.023,90.6673,269.805,89.9702,270.179 C89.9655,270.182,89.9609,270.184,89.9563,270.187 L76.5027,277.905 C75.8176,278.301,76.1388,280.14,77.2202,282.013 C78.2768,283.843,79.6739,285.036,80.3774,284.71 Z"/>
        <path fill="#ffee84" d="M130,293.448 C130.024,292.657,128.29,292.009,126.128,292 C123.965,291.991,122.192,292.625,122.168,293.417 C122.168,293.422,122.168,293.427,122.168,293.432 L122.125,308.942 C122.125,309.734,123.878,310.375,126.041,310.375 C128.154,310.375,129.886,309.762,129.955,308.989 Z"/>
        <path fill="#ffee84" d="M162.329,270.158 C161.656,269.742,160.227,270.919,159.138,272.787 C158.049,274.656,157.712,276.508,158.385,276.925 C158.39,276.927,158.394,276.93,158.399,276.933 L171.81,284.725 C172.495,285.121,173.927,283.923,175.008,282.05 C176.065,280.22,176.4,278.413,175.765,277.967 Z"/>
        <path fill="#ffee84" d="M149.103,286.141 C148.728,285.444,146.902,285.75,145.025,286.823 C143.148,287.897,141.93,289.333,142.304,290.03 C142.307,290.034,142.309,290.039,142.312,290.044 L150.03,303.497 C150.426,304.182,152.265,303.861,154.138,302.78 C155.968,301.723,157.161,300.326,156.835,299.623 Z"/>
        <path fill="none" stroke="#ffee84" stroke-width="7" d="M157.952,253.664 C157.952,271.22,143.72,285.452,126.164,285.452 C108.607,285.452,94.375,271.22,94.375,253.664 C94.375,236.107,108.607,221.875,126.164,221.875 C143.72,221.875,157.952,236.107,157.952,253.664 Z"/>
    </g>
</svg>
