<?xml version="1.0" encoding="UTF-8" standalone="no"?>
<!DOCTYPE svg PUBLIC "-//W3C//DTD SVG 1.1//EN" "http://www.w3.org/Graphics/SVG/1.1/DTD/svg11.dtd">
<svg version="1.1" viewBox="60,344,192,155" width="192" height="155" xmlns="http://www.w3.org/2000/svg">
    <g id="background">
        <path fill="#0000b8" fill-opacity="0.01" stroke="#262851" stroke-width="0.01" d="M60.75,344.5 L251.25,344.5 L251.25,498 L60.75,498 L60.75,344.5 Z"/>
    </g>
    <g id="image">
        <path fill="none" stroke="#f7000d" stroke-width="12" d="M125,458 C125,467.389,117.389,475,108,475 C98.6112,475,91,467.389,91,458 C91,448.611,98.6112,441,108,441 C117.389,441,125,448.611,125,458"/>
        <path fill="#fc1b1d" d="M103.125,371.645 C103.125,367.975,105.839,365,109.187,365 L109.187,365 C112.536,365,115.25,367.975,115.25,371.645 L115.25,437.218 C115.25,440.888,112.536,443.863,109.187,443.863 L109.187,444.102 C105.839,444.102,103.125,441.127,103.125,437.457 Z"/>
        <path fill="#fc1b1d" d="M97.7173,372.111 C99.2126,372.111,100.425,373.79,100.425,375.861 L100.425,375.861 C100.425,377.932,99.2126,379.611,97.7173,379.611 L82.1321,379.611 C80.6368,379.611,79.4247,377.932,79.4247,375.861 L79.4247,375.861 C79.4247,373.79,80.6368,372.111,82.1321,372.111 Z"/>
        <path fill="#fc1b1d" d="M97.7173,396.357 C99.2126,396.357,100.425,398.036,100.425,400.107 L100.425,400.107 C100.425,402.178,99.2126,403.857,97.7173,403.857 L82.1321,403.857 C80.6368,403.857,79.4247,402.178,79.4247,400.107 L79.4247,400.107 C79.4247,398.036,80.6368,396.357,82.1321,396.357 Z"/><path fill="#fc1b1d" d="M97.7173,420.356 C99.2126,420.356,100.425,422.035,100.425,424.106 L100.425,424.106 C100.425,426.177,99.2126,427.856,97.7173,427.856 L82.1321,427.856 C80.6368,427.856,79.4247,426.177,79.4247,424.106 L79.4247,424.106 C79.4247,422.035,80.6368,420.356,82.1321,420.356 Z"/>
        <path fill="none" stroke="#ca0016" stroke-width="7" d="M162.167,377.796 C162.167,383.317,157.692,387.792,152.171,387.792 C146.651,387.792,142.175,383.317,142.175,377.796 C142.175,372.276,146.651,367.8,152.171,367.8 C157.692,367.8,162.167,372.276,162.167,377.796 Z"/>
        <text fill="#dc0017" font-family="Helvetica" font-size="12" transform="matrix(9.4057,0,0,12.371,163.23,474.879)" xml:space="preserve"><tspan kerning="0">C</tspan></text>
    </g>
</svg>
