<?xml version="1.0" encoding="UTF-8" standalone="no"?>
<!DOCTYPE svg PUBLIC "-//W3C//DTD SVG 1.1//EN" "http://www.w3.org/Graphics/SVG/1.1/DTD/svg11.dtd">
<svg version="1.1" viewBox="263,287,192,155" width="192" height="155" xmlns="http://www.w3.org/2000/svg">
    <g id="background">
        <path fill="#fffffe" fill-opacity="0.01" stroke="#262851" stroke-width="0.01" d="M263.5,287.5 L454,287.5 L454,441 L263.5,441 L263.5,287.5 Z"/>
    </g>
    <g id="image">
        <path fill="none" stroke="#0c3" stroke-width="12" d="M326.5,402.062 C326.5,411.624,318.749,419.375,309.187,419.375 C299.626,419.375,291.875,411.624,291.875,402.062 C291.875,392.501,299.626,384.75,309.187,384.75 C318.749,384.75,326.5,392.501,326.5,402.062"/>
        <path fill="#1ac332" stroke="#0c3" d="M304.438,315.644 C304.438,311.974,307.124,308.999,310.438,308.999 L310.438,308.999 C313.751,308.999,316.438,311.974,316.438,315.644 L316.438,381.217 C316.438,384.887,313.751,387.862,310.438,387.862 L310.438,388.101 C307.124,388.101,304.438,385.126,304.438,381.456 Z"/>
        <path fill="#1ac332" stroke="#0c3" d="M298.909,316.135 C300.404,316.135,301.616,317.814,301.616,319.885 L301.616,319.885 C301.616,321.956,300.404,323.635,298.909,323.635 L283.324,323.635 C281.829,323.635,280.616,321.956,280.616,319.885 L280.616,319.885 C280.616,317.814,281.829,316.135,283.324,316.135 Z"/>
        <path fill="#1ac332" stroke="#0c3" d="M298.909,340.424 C300.404,340.424,301.616,342.103,301.616,344.174 L301.616,344.174 C301.616,346.245,300.404,347.924,298.909,347.924 L283.324,347.924 C281.829,347.924,280.616,346.245,280.616,344.174 L280.616,344.174 C280.616,342.103,281.829,340.424,283.324,340.424 Z"/>
        <path fill="#1ac332" stroke="#0c3" d="M298.909,364.463 C300.404,364.463,301.616,366.142,301.616,368.213 L301.616,368.213 C301.616,370.284,300.404,371.963,298.909,371.963 L283.324,371.963 C281.829,371.963,280.616,370.284,280.616,368.213 L280.616,368.213 C280.616,366.142,281.829,364.463,283.324,364.463 Z"/>
        <path fill="none" stroke="#0c3" stroke-width="7" d="M368.375,321.275 C368.375,326.784,363.909,331.25,358.4,331.25 C352.891,331.25,348.425,326.784,348.425,321.275 C348.425,315.766,352.891,311.3,358.4,311.3 C363.909,311.3,368.375,315.766,368.375,321.275 Z"/>
        <text fill="#1ac332" stroke="#0c3" stroke-width="0.089434" font-family="Helvetica" font-size="12" transform="matrix(9.75172,0,0,13.1024,375.776,422.924)" xml:space="preserve"><tspan>F</tspan></text>
    </g>
</svg>
