<?xml version="1.0" encoding="UTF-8" standalone="no"?>
<svg version="1.1" viewBox="32,113,501,501" width="501" height="501" xmlns="http://www.w3.org/2000/svg">
    <g id="background">
        <path fill="#fffffe" fill-opacity="0.01" d="M32.5,113.501 L532,113.501 L532,613.001 L32.5,613.001 Z"/>
    </g>
    <g id="drawing">
        <path class="fan" d="M532.75,343.5 L454.25,441 L374,344.5 L428,343.5 C414,220.5,246,153,157,285.5 L121,240.5 C251.5,82,467,172.75,485.5,343 Z"/>
        <path class="fan" d="M32,378.804 L110.5,281.304 L190.75,377.804 L136.75,378.804 C150.75,501.804,318.75,569.304,407.75,436.804 L443.75,481.804 C313.25,640.304,97.75,549.554,79.25,379.304 Z"/>
        <path class="fanStroke" stroke-width="20" d="M337.944,364.472 C337.944,394.97,313.22,419.693,282.722,419.693 C252.224,419.693,227.5,394.97,227.5,364.472 C227.5,333.974,252.224,309.25,282.722,309.25 C313.22,309.25,337.944,333.974,337.944,364.472 Z"/>
        <path class="fanStroke" stroke-width="20" d="M289.885,364.442 C289.885,368.208,286.833,371.26,283.067,371.26 C279.302,371.26,276.25,368.208,276.25,364.442 C276.25,360.677,279.302,357.625,283.067,357.625 C286.833,357.625,289.885,360.677,289.885,364.442 Z"/>
    </g>
</svg>
