<?xml version="1.0" encoding="UTF-8" standalone="no"?>
<svg version="1.1" viewBox="32,113,501,501" width="501" height="501" xmlns="http://www.w3.org/2000/svg">
    <g id="background">
        <path fill="#fffffe" fill-opacity="0.01" d="M32.5,113.501 L532,113.501 L532,613.001 L32.5,613.001 Z"/>
    </g>
    <g id="drawing_2">
        <path class="fan" d="M532.75,343.5 L454.25,441 L374,344.5 L428,343.5 C414,220.5,246,153,157,285.5 L121,240.5 C251.5,82,467,172.75,485.5,343 Z"/>
        <path class="fan" d="M32,378.804 L110.5,281.304 L190.75,377.804 L136.75,378.804 C150.75,501.804,318.75,569.304,407.75,436.804 L443.75,481.804 C313.25,640.304,97.75,549.554,79.25,379.304 Z"/>
        <text class="fan" font-family="Arial" font-weight="bold" font-size="12" transform="matrix(20.0716,0,0,20.257,196,449.004)" xml:space="preserve"><tspan>A</tspan></text>
    </g>
</svg>
