<?xml version="1.0" encoding="UTF-8" standalone="no"?>
<svg version="1.1" viewBox="32,113,500,501" width="500" height="501" xmlns="http://www.w3.org/2000/svg">
    <g id="background">
        <path fill="#a3a2ff" fill-opacity="0.01" d="M32.5,113.501 L532,113.501 L532,613.001 L32.5,613.001 Z"/>
    </g>
    <g id="drawing">
        <path class="fan" stroke="#000100" stroke-opacity="0.01" d="M227.625,334.25 C217.102,335.829,194.375,332.25,140.5,340.75 C110.583,345.47,78.3882,368.374,62.4427,386.756 C44.4427,407.506,36.7311,432.612,40.5,455.875 C47.75,500.625,61.25,506.375,90.125,538.25 C112.54,562.994,136.738,593.896,178.75,579.5 C214.5,567.25,211.25,499.778,215.25,467.25 C220,428.625,227.746,420.18,233.75,417.125 C240.875,413.5,248.75,413.5,252.25,421.75 C257.751,434.717,250.92,453.409,259.42,507.284 C264.14,537.202,285.788,570.964,304.17,586.909 C324.92,604.909,349.656,611.553,372.92,607.784 C417.67,600.534,427.545,589.034,459.42,560.159 C484.164,537.744,510.815,503.296,496.42,461.284 C484.17,425.534,418.259,434.501,385.67,431.034 C338.67,426.034,337,420.875,333.125,414 C330.757,409.798,330.25,397.375,340,395.375 C348.718,393.587,370.227,400.029,424.102,391.529 C454.019,386.809,488.782,365.16,504.727,346.779 C522.727,326.029,531.371,301.292,527.602,278.029 C520.352,233.279,506.852,218.404,477.977,186.529 C455.562,161.785,421.114,135.133,379.102,149.529 C343.352,161.779,351.319,232.689,347.852,265.279 C342.852,312.279,335.625,319.062,328.938,319.875 C319.052,321.076,316.491,317.794,315.188,316.188 C306.312,305.25,316.25,280.125,307.75,226.25 C303.03,196.333,281.382,161.57,263,145.625 C242.25,127.625,217.513,118.981,194.25,122.75 C149.5,130,134.625,143.5,102.75,172.375 C78.006,194.79,56.6044,225.738,71,267.75 C83.25,303.5,151.661,293.783,184.25,297.25 C231.25,302.25,237.5,311.625,237.75,321.75 C237.991,331.526,233.495,333.369,227.625,334.25 Z"/>
    </g>
</svg>
